<svg width="100" height="100" viewBox="0 0 100 100" fill="none" xmlns="http://www.w3.org/2000/svg">
<g clip-path="url(#clip0_521_4)">
<path d="M91.6667 29.1668H62.5V20.8335H91.6667V29.1668ZM98.8583 70.8335C97.0167 76.2377 90.4042 83.3335 77.6042 83.3335C64.7958 83.3335 54.4208 76.1293 54.4208 59.6877C54.4208 43.396 64.1083 35.021 77.1958 35.021C90.0375 35.021 97.8792 42.446 99.5917 53.4627C99.9167 55.571 100.046 58.4127 99.9875 62.3793H66.5417C67.0833 75.7585 81.0542 76.1793 85.6583 70.8335H98.8583ZM66.8333 54.1668H87.5208C87.0833 47.721 82.7875 44.921 77.2 44.921C71.0917 44.921 67.7125 48.121 66.8333 54.1668ZM26.9417 83.2835H0V20.921H28.9708C51.7875 21.2585 52.2208 43.6043 40.3042 49.696C54.725 54.946 55.2083 83.2835 26.9417 83.2835ZM12.5 45.8335H27.4333C37.8833 45.8335 39.5417 33.3335 26.1333 33.3335H12.5V45.8335ZM26.6292 58.3335H12.5V70.9002H26.4208C39.15 70.9002 38.3708 58.3335 26.6292 58.3335Z" fill="white"/>
</g>
<defs>
<clipPath id="clip0_521_4">
<rect width="100" height="100" fill="white"/>
</clipPath>
</defs>
</svg>
