<svg width="100" height="100" viewBox="0 0 100 100" fill="none" xmlns="http://www.w3.org/2000/svg">
<g clip-path="url(#clip0_59_129)">
<path d="M50.0225 27.5391C35.826 27.5391 24.3751 37.5586 24.3751 49.9805C24.3751 62.4023 35.826 72.4219 50.0225 72.4219C64.2189 72.4219 75.6698 62.4023 75.6698 49.9805C75.6698 37.5586 64.2189 27.5391 50.0225 27.5391ZM50.0225 64.5703C40.8484 64.5703 33.3484 58.0273 33.3484 49.9805C33.3484 41.9336 40.826 35.3906 50.0225 35.3906C59.2189 35.3906 66.6966 41.9336 66.6966 49.9805C66.6966 58.0273 59.1966 64.5703 50.0225 64.5703ZM82.701 26.6211C82.701 29.5312 80.0225 31.8555 76.7189 31.8555C73.393 31.8555 70.7367 29.5117 70.7367 26.6211C70.7367 23.7305 73.4153 21.3867 76.7189 21.3867C80.0225 21.3867 82.701 23.7305 82.701 26.6211ZM99.6876 31.9336C99.3082 24.9219 97.4778 18.7109 91.6073 13.5937C85.7591 8.47656 78.6609 6.875 70.6475 6.52344C62.3885 6.11328 37.6341 6.11328 29.3751 6.52344C21.3841 6.85547 14.2859 8.45703 8.41532 13.5742C2.54478 18.6914 0.736747 24.9023 0.334961 31.9141C-0.133789 39.1406 -0.133789 60.8008 0.334961 68.0273C0.714425 75.0391 2.54478 81.25 8.41532 86.3672C14.2859 91.4844 21.3617 93.0859 29.3751 93.4375C37.6341 93.8477 62.3885 93.8477 70.6475 93.4375C78.6609 93.1055 85.7591 91.5039 91.6073 86.3672C97.4555 81.25 99.2859 75.0391 99.6876 68.0273C100.156 60.8008 100.156 39.1602 99.6876 31.9336ZM89.018 75.7812C87.2769 79.6094 83.9064 82.5586 79.5091 84.1016C72.9243 86.3867 57.2992 85.8594 50.0225 85.8594C42.7457 85.8594 27.0984 86.3672 20.5359 84.1016C16.1609 82.5781 12.7903 79.6289 11.0269 75.7812C8.41532 70.0195 9.018 56.3477 9.018 49.9805C9.018 43.6133 8.43764 29.9219 11.0269 24.1797C12.768 20.3516 16.1385 17.4023 20.5359 15.8594C27.1207 13.5742 42.7457 14.1016 50.0225 14.1016C57.2992 14.1016 72.9466 13.5937 79.5091 15.8594C83.8841 17.3828 87.2546 20.332 89.018 24.1797C91.6296 29.9414 91.0269 43.6133 91.0269 49.9805C91.0269 56.3477 91.6296 70.0391 89.018 75.7812Z" fill="white"/>
</g>
<defs>
<clipPath id="clip0_59_129">
<rect width="100" height="100" fill="white"/>
</clipPath>
</defs>
</svg>
