<svg width="32" height="32" viewBox="0 0 32 32" fill="none" xmlns="http://www.w3.org/2000/svg">
<g clip-path="url(#clip0_36_369)">
<path d="M31.04 16C31.04 7.69363 24.3064 0.959991 16 0.959991C7.69366 0.959991 0.960022 7.69363 0.960022 16C0.960022 24.3064 7.69366 31.04 16 31.04C24.3064 31.04 31.04 24.3064 31.04 16Z" fill="white" stroke="url(#paint0_linear_36_369)" stroke-width="2"/>
<path d="M4.68994 21.12V20.7974L6.19522 20.1831L10.6343 8.52481H10.88L15.0733 20.5671L16.4864 20.7974V21.12H11.9706V20.7974L13.2301 20.5978L11.9245 16.9575H7.83874L6.59458 20.1831L7.97698 20.7974V21.12H4.68994ZM7.96162 16.6349H11.817L9.97378 11.2282L7.96162 16.6349ZM21.6435 21.4272C20.6912 21.4272 19.7543 21.1559 18.8327 20.6131L17.5271 21.2736H17.1891V17.3261H17.5271L18.848 20.1831C19.6979 20.7872 20.6707 21.0893 21.7664 21.0893C22.6675 21.0893 23.4099 20.8538 23.9936 20.3827C24.5875 19.9015 24.8845 19.2307 24.8845 18.3706C24.8845 17.7459 24.6951 17.2544 24.3162 16.896C23.9373 16.5274 23.3229 16.2355 22.473 16.0205L19.9232 15.36C19.0323 15.1245 18.3616 14.7251 17.9111 14.1619C17.4605 13.5885 17.2352 12.9127 17.2352 12.1344C17.2352 11.4279 17.3735 10.8032 17.6499 10.2605C17.9367 9.70753 18.3514 9.28257 18.8941 8.98561C19.4368 8.67841 20.0819 8.52481 20.8295 8.52481C21.7613 8.52481 22.5959 8.68353 23.3331 9.00097L24.4544 8.52481H24.7923V11.6583H24.4544L23.3485 9.41569C22.5805 9.04705 21.7459 8.86273 20.8448 8.86273C19.9539 8.86273 19.2525 9.09313 18.7405 9.55393C18.2285 10.0045 17.9725 10.6035 17.9725 11.3511C17.9725 11.904 18.1517 12.3392 18.5101 12.6567C18.8787 12.9741 19.4163 13.225 20.1229 13.4093L22.8723 14.1312C23.7632 14.3565 24.4237 14.7456 24.8538 15.2986C25.2941 15.8413 25.5143 16.6707 25.5143 17.7869C25.5143 18.9235 25.161 19.8144 24.4544 20.4595C23.7581 21.1047 22.8211 21.4272 21.6435 21.4272Z" fill="#261C41"/>
</g>
<defs>
<linearGradient id="paint0_linear_36_369" x1="2.19941e-05" y1="16" x2="32" y2="16" gradientUnits="userSpaceOnUse">
<stop stop-color="#2B0839"/>
<stop offset="1" stop-color="#11267E"/>
</linearGradient>
<clipPath id="clip0_36_369">
<rect width="32" height="32" fill="white"/>
</clipPath>
</defs>
</svg>
