<svg width="100" height="100" viewBox="0 0 100 100" fill="none" xmlns="http://www.w3.org/2000/svg">
<rect x="3" y="3" width="94" height="94" rx="47" stroke="url(#paint0_linear_84_2)" stroke-width="6"/>
<path d="M14.656 66V64.992L19.36 63.072L33.232 26.64H34L47.104 64.272L51.52 64.992V66H37.408V64.992L41.344 64.368L37.264 52.992H24.496L20.608 63.072L24.928 64.992V66H14.656ZM24.88 51.984H36.928L31.168 35.088L24.88 51.984ZM67.636 66.96C64.66 66.96 61.732 66.112 58.852 64.416L54.772 66.48H53.716V54.144H54.772L58.9 63.072C61.556 64.96 64.596 65.904 68.02 65.904C70.836 65.904 73.156 65.168 74.98 63.696C76.836 62.192 77.764 60.096 77.764 57.408C77.764 55.456 77.172 53.92 75.988 52.8C74.804 51.648 72.884 50.736 70.228 50.064L62.26 48C59.476 47.264 57.38 46.016 55.972 44.256C54.564 42.464 53.86 40.352 53.86 37.92C53.86 35.712 54.292 33.76 55.156 32.064C56.052 30.336 57.348 29.008 59.044 28.08C60.74 27.12 62.756 26.64 65.092 26.64C68.004 26.64 70.612 27.136 72.916 28.128L76.42 26.64H77.476V36.432H76.42L72.964 29.424C70.564 28.272 67.956 27.696 65.14 27.696C62.356 27.696 60.164 28.416 58.564 29.856C56.964 31.264 56.164 33.136 56.164 35.472C56.164 37.2 56.724 38.56 57.844 39.552C58.996 40.544 60.676 41.328 62.884 41.904L71.476 44.16C74.26 44.864 76.324 46.08 77.668 47.808C79.044 49.504 79.732 52.096 79.732 55.584C79.732 59.136 78.628 61.92 76.42 63.936C74.244 65.952 71.316 66.96 67.636 66.96Z" fill="#261C41"/>
<defs>
<linearGradient id="paint0_linear_84_2" x1="0" y1="50" x2="100" y2="50" gradientUnits="userSpaceOnUse">
<stop stop-color="#2B0839"/>
<stop offset="1" stop-color="#11267E"/>
</linearGradient>
</defs>
</svg>
