<svg width="100" height="100" viewBox="0 0 100 100" fill="none" xmlns="http://www.w3.org/2000/svg">
<path d="M15.5207 85.9377C12.8089 85.9377 10.499 84.9837 8.59098 83.0757C6.683 81.1677 5.729 78.8578 5.729 76.146V23.8543C5.729 21.1138 6.683 18.7794 8.59098 16.8511C10.499 14.9227 12.8089 13.9585 15.5207 13.9585H84.479C87.2195 13.9585 89.5539 14.9227 91.4822 16.8511C93.4106 18.7794 94.3748 21.1138 94.3748 23.8543V76.146C94.3748 78.8578 93.4106 81.1677 91.4822 83.0757C89.5539 84.9837 87.2195 85.9377 84.479 85.9377H15.5207ZM84.479 31.9793L52.7185 53.3302C52.2386 53.6102 51.787 53.8196 51.3638 53.9585C50.9406 54.0974 50.4859 54.1668 49.9998 54.1668C49.5137 54.1668 49.0591 54.0974 48.6359 53.9585C48.2127 53.8196 47.7611 53.6102 47.2812 53.3302L15.5207 31.9793V76.146H84.479V31.9793ZM49.9998 46.5627L84.0623 23.8543H16.0415L49.9998 46.5627ZM15.5207 33.021V27.3105V27.4214V23.8543V27.396V27.1968V33.021Z" fill="white"/>
</svg>
