<svg width="100" height="100" viewBox="0 0 100 100" fill="none" xmlns="http://www.w3.org/2000/svg">
<path d="M89.2857 6.25H10.7143C4.79911 6.25 0 10.4492 0 15.625V84.375C0 89.5508 4.79911 93.75 10.7143 93.75H89.2857C95.2009 93.75 100 89.5508 100 84.375V15.625C100 10.4492 95.2009 6.25 89.2857 6.25ZM78.3705 37.2656C78.4152 37.8125 78.4152 38.3789 78.4152 38.9258C78.4152 55.8594 63.683 75.3711 36.7634 75.3711C28.4598 75.3711 20.7589 73.2617 14.2857 69.6289C15.4687 69.7461 16.6071 69.7852 17.8125 69.7852C24.6652 69.7852 30.9598 67.7539 35.9821 64.3164C29.5536 64.1992 24.1518 60.5078 22.2991 55.4297C24.5536 55.7227 26.5848 55.7227 28.9062 55.1953C22.2098 54.0039 17.1875 48.8477 17.1875 42.6172V42.4609C19.1295 43.418 21.4062 44.0039 23.7946 44.082C21.7867 42.9133 20.1406 41.3279 19.0033 39.4671C17.866 37.6063 17.2728 35.5281 17.2768 33.418C17.2768 31.0352 17.9911 28.8477 19.2634 26.9531C26.4732 34.7266 37.2991 39.8047 49.442 40.3516C47.3661 31.6602 54.7991 24.6094 63.7277 24.6094C67.9464 24.6094 71.7411 26.1523 74.4196 28.6523C77.7232 28.1055 80.8929 27.0312 83.7054 25.5664C82.6116 28.5352 80.3125 31.0352 77.2768 32.6172C80.2232 32.3438 83.0804 31.6211 85.7143 30.625C83.7277 33.1836 81.2277 35.4492 78.3705 37.2656Z" fill="white"/>
</svg>
